# xmcd
#
# Track frame offsets: 
#        150
#        22096
#        42473
#        73544
#        98954
#        115607
#        141499
#        158517
#        179133
#        205899
#        221736
#        246497
#
# Disc length: 3695 seconds
#
# Revision: 0
# Processed by: cddbd v1.5.2PL0 Copyright (c) Steve Scherf et al.
# Submitted via: ExactAudioCopyFreeDBPlugin 1.0
#
DISCID=ba0e6d0c
DTITLE=Nicole Willis - Depth of Funk:  "Keep Reachin' UP" Re-mixed
DYEAR=2007
DGENRE=Soul
TTITLE0=If This Ain't Love (Elizabeth Shepherd Trio Rework)
TTITLE1=A Perfect Kind of Love (Lack of Afro Re-Funk)
TTITLE2=If This Ain't Love (Mr Scruff Rework)
TTITLE3=Holding On (Afronaut Remix)
TTITLE4=Keep Reachin' Up (Rob Life Re-Edit)
TTITLE5=Feeling Free (Aaron Jerome's If Music Mix)
TTITLE6=Soul Investigator's Theme (Ghost Investigates Remix)
TTITLE7=My 4 Leaf Clover (The Dynamics Remix)
TTITLE8=No One's Gonna Love You (Blackbeard Rework)
TTITLE9=Soul Investigator's Theme (Mike Slott's Heralds of Change Mix)
TTITLE10=Invisible Man (Simbad's Deepstep Remix)
TTITLE11=Feeling free (Hoop's JuJu)
EXTD=
EXTT0=
EXTT1=
EXTT2=
EXTT3=
EXTT4=
EXTT5=
EXTT6=
EXTT7=
EXTT8=
EXTT9=
EXTT10=
EXTT11=
PLAYORDER=
